<svg xmlns="http://www.w3.org/2000/svg" viewBox="0 0 64 64" fill="none">
	<title>Mouna AI Baby M Logo</title>
	<path
		d="M9 50L18 16L32 39L46 16L55 50"
		stroke="#4F46E5"
		stroke-width="6"
		stroke-linecap="round"
		stroke-linejoin="round"
	/>
	<path
		d="M24 30.5C24 24.7 28.7 20 34.5 20C40.3 20 45 24.7 45 30.5C45 36.3 40.3 41 34.5 41C28.7 41 24 36.3 24 30.5Z"
		stroke="#4F46E5"
		stroke-width="4"
		stroke-linecap="round"
		stroke-linejoin="round"
	/>
	<path
		d="M31.5 27.5C32.6 25.8 35 25.3 36.8 26.3C37.5 26.7 38.1 27.3 38.5 28"
		stroke="#4F46E5"
		stroke-width="3"
		stroke-linecap="round"
		stroke-linejoin="round"
	/>
	<path
		d="M31 33.2C32.1 34.2 33.3 34.7 34.8 34.7C36.3 34.7 37.6 34.2 38.7 33.2"
		stroke="#4F46E5"
		stroke-width="3"
		stroke-linecap="round"
		stroke-linejoin="round"
	/>
	<path
		d="M25.5 42.5C28.3 39.7 31.2 38.3 34.2 38.3C37.5 38.3 40.7 39.9 43.8 43"
		stroke="#4F46E5"
		stroke-width="4"
		stroke-linecap="round"
		stroke-linejoin="round"
	/>
</svg>